# xmcd CD database file
#
# Track frame offsets:
#	150
#	10807
#	26420
#	40694
#	56363
#	72283
#	86583
#	109832
#	129951
#	139509
#	153638
#	178801
#
# Disc length: 2574 seconds
#
# Revision: 0
# Processed by: cddbd v1.4PL0 Copyright (c) Steve Scherf et al.
# Submitted via: CDex 1.40Beta9
#
DISCID=940a0c0c
DTITLE=Dog'nDustbin Blues Band - Joining the Bits
DYEAR=2000
DGENRE=Blues
TTITLE0=I want to be loved
TTITLE1=Me and my Baby
TTITLE2=The Day of the double Five
TTITLE3=You don't love me
TTITLE4=All your Love
TTITLE5=A million Light Years apart
TTITLE6=Mustang Sally
TTITLE7=Hound Dog
TTITLE8=Taste and try befor you buy
TTITLE9=Walking by myself
TTITLE10=Hoochie Coochie Man
TTITLE11=Caldonia
EXTD=YEAR: 2000 ID3G: 0
EXTT0=
EXTT1=
EXTT2=
EXTT3=
EXTT4=
EXTT5=
EXTT6=
EXTT7=
EXTT8=
EXTT9=
EXTT10=
EXTT11=
PLAYORDER=
